<svg width="30" height="31" viewBox="0 0 30 31" fill="none" xmlns="http://www.w3.org/2000/svg">
<path d="M15.0014 0C10.9276 0 10.4164 0.0178135 8.81634 0.090629C7.21945 0.163757 6.12944 0.41658 5.17568 0.787532C4.18911 1.17067 3.35222 1.68319 2.51846 2.51729C1.68408 3.35107 1.17157 4.18798 0.787195 5.17427C0.415317 6.12837 0.162189 7.21873 0.0903133 8.81505C0.0187501 10.4151 0 10.9267 0 15.0006C0 19.0745 0.0181255 19.5842 0.0906262 21.1843C0.164064 22.7812 0.416879 23.8713 0.787508 24.8251C1.17095 25.8117 1.68345 26.6486 2.51753 27.4824C3.35097 28.3168 4.18786 28.8305 5.1738 29.2137C6.12819 29.5846 7.21851 29.8375 8.81509 29.9106C10.4151 29.9834 10.9261 30.0012 14.9995 30.0012C19.0736 30.0012 19.5833 29.9834 21.1833 29.9106C22.7802 29.8375 23.8715 29.5846 24.8259 29.2137C25.8121 28.8305 26.6478 28.3168 27.4812 27.4824C28.3156 26.6486 28.8281 25.8117 29.2125 24.8254C29.5812 23.8713 29.8344 22.7809 29.9094 21.1846C29.9812 19.5845 30 19.0745 30 15.0006C30 10.9267 29.9812 10.4154 29.9094 8.81536C29.8344 7.21842 29.5812 6.12837 29.2125 5.17459C28.8281 4.18798 28.3156 3.35107 27.4812 2.51729C26.6468 1.68288 25.8125 1.17036 24.8249 0.787532C23.8687 0.41658 22.778 0.163757 21.1812 0.090629C19.5811 0.0178135 19.0718 0 14.9967 0H15.0014ZM13.6558 2.70323C14.0551 2.70261 14.5008 2.70323 15.0014 2.70323C19.0064 2.70323 19.4811 2.71761 21.0627 2.78949C22.5252 2.85637 23.319 3.10075 23.8477 3.30607C24.5478 3.57796 25.0468 3.90297 25.5715 4.42799C26.0965 4.95301 26.4215 5.45303 26.694 6.15306C26.8993 6.68121 27.144 7.47499 27.2106 8.93755C27.2825 10.5189 27.2981 10.9939 27.2981 14.9972C27.2981 19.0005 27.2825 19.4755 27.2106 21.0568C27.1437 22.5194 26.8993 23.3131 26.694 23.8413C26.4221 24.5413 26.0965 25.0398 25.5715 25.5645C25.0465 26.0895 24.5481 26.4145 23.8477 26.6864C23.3196 26.8927 22.5252 27.1364 21.0627 27.2033C19.4815 27.2752 19.0064 27.2908 15.0014 27.2908C10.9961 27.2908 10.5214 27.2752 8.94009 27.2033C7.47758 27.1358 6.68382 26.8914 6.15475 26.6861C5.45474 26.4142 4.95474 26.0892 4.42973 25.5642C3.90473 25.0391 3.57972 24.5404 3.30722 23.84C3.10191 23.3119 2.85722 22.5181 2.79065 21.0555C2.71878 19.4742 2.7044 18.9992 2.7044 14.9934C2.7044 10.9876 2.71878 10.5151 2.79065 8.9338C2.85753 7.47124 3.10191 6.67746 3.30722 6.14869C3.5791 5.44866 3.90473 4.94864 4.42973 4.42362C4.95474 3.8986 5.45474 3.57358 6.15475 3.30107C6.68351 3.09481 7.47758 2.85105 8.94009 2.78386C10.3239 2.72136 10.8601 2.70261 13.6558 2.69949V2.70323ZM23.0084 5.19396C22.0146 5.19396 21.2083 5.99931 21.2083 6.99341C21.2083 7.9872 22.0146 8.79348 23.0084 8.79348C24.0021 8.79348 24.8084 7.9872 24.8084 6.99341C24.8084 5.99962 24.0021 5.19334 23.0084 5.19334V5.19396ZM15.0014 7.29717C10.7473 7.29717 7.2982 10.7464 7.2982 15.0006C7.2982 19.2548 10.7473 22.7025 15.0014 22.7025C19.2555 22.7025 22.7034 19.2548 22.7034 15.0006C22.7034 10.7464 19.2552 7.29717 15.0011 7.29717H15.0014ZM15.0014 10.0004C17.7627 10.0004 20.0015 12.2389 20.0015 15.0006C20.0015 17.762 17.7627 20.0008 15.0014 20.0008C12.2398 20.0008 10.0014 17.762 10.0014 15.0006C10.0014 12.2389 12.2398 10.0004 15.0014 10.0004Z" fill="#E8E8E8"/>
</svg>
