<svg width="30" height="18" viewBox="0 0 30 18" fill="none" xmlns="http://www.w3.org/2000/svg">
<path d="M24.8946 9.83142C24.4096 9.23142 24.5484 8.96449 24.8946 8.42816C24.9009 8.42204 28.9047 3.00245 29.3173 1.16449L29.3198 1.16326C29.5248 0.493465 29.3198 0.0012207 28.3285 0.0012207H25.0484C24.2133 0.0012207 23.8283 0.42367 23.6221 0.896323C23.6221 0.896323 21.952 4.81224 19.5894 7.35061C18.8269 8.08408 18.4744 8.31918 18.0581 8.31918C17.8531 8.31918 17.5344 8.08408 17.5344 7.41428V1.16326C17.5344 0.359996 17.3006 0.0012207 16.6093 0.0012207H11.4516C10.9279 0.0012207 10.6166 0.375915 10.6166 0.724894C10.6166 1.48653 11.7979 1.66163 11.9204 3.80449V8.45387C11.9204 9.47265 11.7317 9.66 11.3129 9.66C10.1979 9.66 7.49151 5.72816 5.8877 1.22816C5.56394 0.355098 5.24768 0.0024451 4.4064 0.0024451H1.12504C0.188756 0.0024451 0 0.424894 0 0.897547C0 1.73265 1.11504 5.88489 5.18518 11.3706C7.89777 15.1151 11.7179 17.1441 15.193 17.1441C17.2818 17.1441 17.5369 16.6935 17.5369 15.9184C17.5369 12.3404 17.3481 12.0024 18.3944 12.0024C18.8794 12.0024 19.7144 12.2375 21.6645 14.0437C23.8933 16.1853 24.2596 17.1441 25.5071 17.1441H28.7872C29.7223 17.1441 30.196 16.6935 29.9235 15.8045C29.2998 13.9347 25.0846 10.0886 24.8946 9.83142V9.83142Z" fill="#E8E8E8"/>
</svg>
